<?xml version="1.0" encoding="UTF-8" standalone="no"?>
<!DOCTYPE svg PUBLIC "-//W3C//DTD SVG 1.1//EN" "http://www.w3.org/Graphics/SVG/1.1/DTD/svg11.dtd">
<!-- Created with Vectornator (http://vectornator.io/) -->
<svg height="100%" stroke-miterlimit="10" style="fill-rule:nonzero;clip-rule:evenodd;stroke-linecap:round;stroke-linejoin:round;" version="1.1" viewBox="0 0 560 400" width="100%" xml:space="preserve" xmlns="http://www.w3.org/2000/svg" xmlns:vectornator="http://vectornator.io" xmlns:xlink="http://www.w3.org/1999/xlink">
<defs>
<linearGradient gradientTransform="matrix(1 0 0 1 0 0)" gradientUnits="userSpaceOnUse" id="LinearGradient" x1="191.785" x2="363.584" y1="215.11" y2="215.11">
<stop offset="0" stop-color="#f5891d"/>
<stop offset="0.801653" stop-color="#202e89" stop-opacity="0.886128"/>
<stop offset="0.919421" stop-color="#45249d"/>
<stop offset="1" stop-color="#000000"/>
</linearGradient>
</defs>
<g id="Untitled" vectornator:layerName="Untitled">
<path d="M245.616 159.327C245.616 161.344 245.447 164.703 243.452 166.884C241.28 168.904 237.949 169.073 235.946 169.073L214.617 169.073C208.447 169.073 204.786 169.073 202.284 169.406C200.948 169.577 199.283 170.25 198.454 170.581C198.116 170.752 198.116 170.581 198.285 170.412L246.951 120.521C247.112 120.352 247.282 120.352 247.112 120.692C246.783 121.527 246.116 123.207 245.946 124.551C245.616 127.074 245.616 130.771 245.616 136.985L245.616 159.327ZM290.944 310.181C285.28 306.491 282.278 301.617 281.112 298.593C279.946 295.739 279.278 292.542 279.278 289.356C279.278 275.407 290.613 263.988 304.612 263.988C308.78 263.988 312.11 267.345 312.11 271.546C312.11 274.401 310.614 276.753 308.282 278.1C307.444 278.602 306.279 278.935 305.45 279.106C304.612 279.275 301.45 279.608 299.947 280.954C298.281 282.301 296.945 284.482 296.945 286.833C296.945 289.356 297.95 291.707 299.616 293.386C302.618 296.412 306.616 298.089 310.944 298.089C322.279 298.089 331.443 288.845 331.443 277.426C331.443 267.176 324.613 258.108 315.61 254.071C314.283 253.405 312.11 252.894 310.116 252.392C307.614 251.89 305.28 251.557 305.111 251.557C298.111 250.712 280.614 245.174 279.446 229.548C279.446 229.548 274.282 253.065 263.952 259.447C262.945 259.959 261.618 260.461 260.113 260.794C258.616 261.134 256.952 261.296 256.445 261.296C239.614 262.309 221.786 256.933 209.452 244.161C209.452 244.161 201.117 237.276 196.781 217.958C195.783 213.255 193.788 204.853 192.614 196.955C192.115 194.101 191.954 191.919 191.785 189.9C191.785 181.669 196.781 176.128 203.121 175.286L237.112 175.286C242.945 175.286 246.283 173.778 248.447 171.759C251.279 169.073 251.947 165.205 251.947 160.671L251.947 125.224C252.785 119.006 258.279 113.798 266.445 113.798L270.445 113.798C272.118 113.798 274.112 113.97 275.946 114.138C277.281 114.3 278.45 114.643 280.444 115.145C290.613 117.666 292.777 128.079 292.777 128.079C292.777 128.079 311.949 131.438 321.611 133.124C330.775 134.803 353.447 136.312 357.776 159.327C367.945 214.09 361.774 267.176 361.276 267.176C354.108 318.916 311.442 316.401 311.442 316.401C302.278 316.401 295.449 313.376 290.944 310.181M329.279 200.15C323.776 199.646 319.11 201.829 317.444 206.028C317.115 206.866 316.778 207.879 316.946 208.381C317.115 208.883 317.444 209.054 317.783 209.216C319.778 210.229 323.108 210.733 327.943 211.235C332.779 211.738 336.111 212.08 338.282 211.738C338.613 211.738 338.943 211.569 339.28 211.064C339.609 210.562 339.448 209.556 339.448 208.714C338.78 204.011 334.782 200.823 329.279 200.15" fill="url(#LinearGradient)" fill-rule="evenodd" opacity="1" stroke="none"/>
</g>
</svg>
